<svg width="222" height="12" xmlns="http://www.w3.org/2000/svg"><g fill="#33D9C2" fill-rule="evenodd"><path d="M9.49.112l6.009 8.212L21.424.112h3.417l6.073 11.043h-3.965l-4.006-7.288-5.146 7.288h-4.68l-5.23-7.208-3.902 7.208H0L6.073.112H9.49M42.048 6.678h9.447l-4.682-3.915-4.765 3.915zM55.1 9.649H38.42l-1.772 1.506h-5.44L44.62.112h4.47c.113 0 4.541 3.681 13.286 11.043h-5.462l-1.813-1.506zM67.415 8.284h14.403l.274-.16v-4.96l-.274-.18H63.346V.111h21.087c.21 0 .418.06.622.18.204.121.382.269.537.442.155.175.282.365.38.572.098.208.148.399.148.573v7.509c0 .175-.05.365-.148.572a2.406 2.406 0 0 1-.38.572 2.248 2.248 0 0 1-.537.442c-.204.121-.411.18-.622.18H63.346V4.189h4.07v4.096M97.907 6.678h9.447l-4.682-3.915-4.765 3.915zm13.053 2.971H94.28l-1.771 1.506h-5.44L100.479.112h4.47c.113 0 4.542 3.681 13.286 11.043h-5.462l-1.813-1.506zM123.19 8.304h14.53l.273-.16V7.139h-14.802v1.165zm0-4.177h12.99v-.983l-.274-.18h-12.715v1.163zm17.714.201a2.772 2.772 0 0 1 .928 1.105c.097.214.147.401.147.562v3.393c0 .175-.05.365-.147.572a2.408 2.408 0 0 1-.38.572 2.237 2.237 0 0 1-.538.442c-.203.121-.411.18-.622.18h-21.087V.113h19.252c.211 0 .422.06.633.18.21.121.393.269.549.442.154.175.28.365.379.572.098.208.147.399.147.573v2.248h.148c.197 0 .393.068.59.201zM147.884 8.124l.231.16h14.213l.274-.16v-4.96l-.274-.18h-14.213l-.231.18v4.96zm-2.341 3.03c-.211 0-.419-.059-.623-.18a2.248 2.248 0 0 1-.537-.442 2.404 2.404 0 0 1-.38-.572 1.338 1.338 0 0 1-.147-.572V1.879c0-.174.049-.365.148-.573.097-.207.225-.397.379-.572.154-.173.334-.32.537-.442.204-.12.412-.18.623-.18h19.4c.21 0 .418.06.622.18.203.121.383.269.537.442.155.175.282.365.38.572.098.208.148.399.148.573v7.509c0 .175-.05.365-.148.572a2.408 2.408 0 0 1-.38.572 2.237 2.237 0 0 1-.537.442c-.204.121-.412.18-.622.18h-19.4zM172.534 8.124l.231.16h18.515v2.87h-21.087c-.211 0-.419-.059-.622-.18a2.248 2.248 0 0 1-.538-.442 2.404 2.404 0 0 1-.38-.572 1.338 1.338 0 0 1-.147-.572V.112h4.028v8.012M193.03 11.155h4.028V.092h-4.028zM203.384 2.983l-.232.18v4.96l.232.161h18.514v2.87h-21.087c-.21 0-.419-.059-.622-.18a2.226 2.226 0 0 1-.538-.442 2.388 2.388 0 0 1-.38-.572 1.338 1.338 0 0 1-.147-.572V1.879c0-.174.049-.365.148-.573.097-.207.225-.397.38-.572.153-.173.333-.32.537-.442.203-.12.411-.18.622-.18h21.087v2.871h-18.514"/></g></svg>